# xmcd
#
# Track frame offsets:
#	150
#	16782
#	33997
#	48170
#	67750
#	85307
#	97282
#	117907
#	134387
#	154120
#	166677
#	183270
#	201165
#	216690
#	235185
#
# Disc length: 3350 seconds
#
# Revision: 1
# Processed by: cddbd v1.5.2PL0 Copyright (c) Steve Scherf et al.
# Submitted via: dBpowerAMP V4.0
#
DISCID=c60d140f
DTITLE=Trisha Yearwood - Hearts In Armor
DYEAR=1991
DGENRE=Country
TTITLE0=You Say You Will
TTITLE1=The Woman Before Me
TTITLE2=When Goodbye Was A Word
TTITLE3=Walkaway Joe
TTITLE4=Down On My Knees
TTITLE5=That s What I Like About You
TTITLE6=Woman Walk The Line
TTITLE7=You Don t Have To Move That Mountain
TTITLE8=Heart In Armor
TTITLE9=Wrong Side Of Memphis
TTITLE10=Like We Never Had A Broken Heart
TTITLE11=Fools Like Me
TTITLE12=Nearest Distant Shore
TTITLE13=She s In Love With The Boy
TTITLE14=Lonesome Dove
EXTD=
EXTT0=
EXTT1=
EXTT2=
EXTT3=
EXTT4=
EXTT5=
EXTT6=
EXTT7=
EXTT8=
EXTT9=
EXTT10=
EXTT11=
EXTT12=
EXTT13=
EXTT14=
PLAYORDER=
